<svg width="36" height="36" viewBox="0 0 36 36" fill="none" xmlns="http://www.w3.org/2000/svg">
<g clip-path="url(#clip0_20_18)" filter="url(#filter0_d_20_18)">
<path d="M11.125 0.25C10.5826 0.25 10.1429 0.68972 10.1429 1.23216V3.19643H12.1071V1.23216C12.1071 0.68972 11.6674 0.25 11.125 0.25Z" fill="white"/>
<path d="M24.875 0.25C24.3325 0.25 23.8928 0.68972 23.8928 1.23216V3.19643H25.8571V1.23216C25.8571 0.68972 25.4174 0.25 24.875 0.25Z" fill="white"/>
<path d="M28.8036 3.19643H25.8571V7.12502C25.8571 7.66746 25.4174 8.10718 24.875 8.10718C24.3325 8.10718 23.8928 7.66746 23.8928 7.12502V3.19643H12.1071V7.12502C12.1071 7.66746 11.6674 8.10718 11.125 8.10718C10.5825 8.10718 10.1428 7.66746 10.1428 7.12502V3.19643H7.19643C5.56916 3.19643 4.25 4.51559 4.25 6.14285V24.8036C4.25 26.4309 5.56916 27.75 7.19643 27.75H28.8036C30.4308 27.75 31.75 26.4309 31.75 24.8036V6.14285C31.75 4.51559 30.4308 3.19643 28.8036 3.19643ZM29.7857 24.8036C29.7857 25.346 29.346 25.7857 28.8035 25.7857H7.19643C6.65399 25.7857 6.21427 25.346 6.21427 24.8036V12.0357H29.7857V24.8036Z" fill="white"/>
<path d="M12.1071 14H10.1428C9.6004 14 9.16068 14.4397 9.16068 14.9822C9.16068 15.5246 9.6004 15.9643 10.1428 15.9643H12.1071C12.6495 15.9643 13.0893 15.5246 13.0893 14.9822C13.0893 14.4397 12.6495 14 12.1071 14Z" fill="white"/>
<path d="M18.9821 14H17.0179C16.4754 14 16.0357 14.4397 16.0357 14.9822C16.0357 15.5246 16.4754 15.9643 17.0179 15.9643H18.9821C19.5246 15.9643 19.9643 15.5246 19.9643 14.9822C19.9643 14.4397 19.5246 14 18.9821 14Z" fill="white"/>
<path d="M25.8572 14H23.8929C23.3505 14 22.9107 14.4397 22.9107 14.9822C22.9107 15.5246 23.3505 15.9643 23.8929 15.9643H25.8572C26.3996 15.9643 26.8393 15.5246 26.8393 14.9822C26.8393 14.4397 26.3995 14 25.8572 14Z" fill="white"/>
<path d="M12.1071 17.9286H10.1428C9.6004 17.9286 9.16068 18.3683 9.16068 18.9107C9.16068 19.4532 9.6004 19.8929 10.1428 19.8929H12.1071C12.6495 19.8929 13.0893 19.4532 13.0893 18.9107C13.0893 18.3683 12.6495 17.9286 12.1071 17.9286Z" fill="white"/>
<path d="M18.9821 17.9286H17.0179C16.4754 17.9286 16.0357 18.3683 16.0357 18.9107C16.0357 19.4532 16.4754 19.8929 17.0179 19.8929H18.9821C19.5246 19.8929 19.9643 19.4532 19.9643 18.9107C19.9643 18.3683 19.5246 17.9286 18.9821 17.9286Z" fill="white"/>
<path d="M25.8572 17.9286H23.8929C23.3505 17.9286 22.9107 18.3683 22.9107 18.9107C22.9107 19.4532 23.3505 19.8929 23.8929 19.8929H25.8572C26.3996 19.8929 26.8393 19.4532 26.8393 18.9107C26.8393 18.3683 26.3995 17.9286 25.8572 17.9286Z" fill="white"/>
<path d="M12.1071 21.8571H10.1428C9.6004 21.8571 9.16068 22.2968 9.16068 22.8393C9.16068 23.3817 9.6004 23.8214 10.1428 23.8214H12.1071C12.6495 23.8214 13.0893 23.3817 13.0893 22.8392C13.0893 22.2968 12.6495 21.8571 12.1071 21.8571Z" fill="white"/>
<path d="M18.9821 21.8571H17.0179C16.4754 21.8571 16.0357 22.2968 16.0357 22.8393C16.0357 23.3817 16.4754 23.8214 17.0179 23.8214H18.9821C19.5246 23.8214 19.9643 23.3817 19.9643 22.8393C19.9643 22.2968 19.5246 21.8571 18.9821 21.8571Z" fill="white"/>
<path d="M25.8572 21.8571H23.8929C23.3505 21.8571 22.9107 22.2968 22.9107 22.8393C22.9107 23.3817 23.3505 23.8214 23.8929 23.8214H25.8572C26.3996 23.8214 26.8393 23.3817 26.8393 22.8393C26.8393 22.2968 26.3995 21.8571 25.8572 21.8571Z" fill="white"/>
</g>
<defs>
<filter id="filter0_d_20_18" x="0.25" y="0.25" width="35.5" height="35.5" filterUnits="userSpaceOnUse" color-interpolation-filters="sRGB">
<feFlood flood-opacity="0" result="BackgroundImageFix"/>
<feColorMatrix in="SourceAlpha" type="matrix" values="0 0 0 0 0 0 0 0 0 0 0 0 0 0 0 0 0 0 127 0" result="hardAlpha"/>
<feOffset dy="4"/>
<feGaussianBlur stdDeviation="2"/>
<feComposite in2="hardAlpha" operator="out"/>
<feColorMatrix type="matrix" values="0 0 0 0 0 0 0 0 0 0 0 0 0 0 0 0 0 0 0.25 0"/>
<feBlend mode="normal" in2="BackgroundImageFix" result="effect1_dropShadow_20_18"/>
<feBlend mode="normal" in="SourceGraphic" in2="effect1_dropShadow_20_18" result="shape"/>
</filter>
<clipPath id="clip0_20_18">
<rect width="27.5" height="27.5" fill="white" transform="translate(4.25 0.25)"/>
</clipPath>
</defs>
</svg>
